<svg id="Capa_1" enable-background="new 0 0 512 512" height="512" viewBox="0 0 512 512" width="512" xmlns="http://www.w3.org/2000/svg" xmlns:xlink="http://www.w3.org/1999/xlink"><linearGradient id="SVGID_1_" gradientUnits="userSpaceOnUse" x1="0" x2="512" y1="256" y2="256"><stop offset="0" stop-color="#80d8ff"/><stop offset="1" stop-color="#ea80fc"/></linearGradient><path d="m492 197.333c11.046 0 20-8.954 20-20v-157.333c0-11.046-8.954-20-20-20h-118c-11.046 0-20 8.954-20 20 0 32.349-26.318 58.667-58.667 58.667s-58.667-26.318-58.667-58.667c0-11.046-8.954-20-20-20h-118c-11.046 0-20 8.954-20 20v139.37c-44.849 9.27-78.666 49.075-78.666 96.63s33.817 87.359 78.667 96.629v139.371c0 11.046 8.954 20 20 20h118c11.046 0 20-8.954 20-20 0-32.349 26.318-58.667 58.667-58.667 32.348 0 58.666 26.318 58.666 58.667 0 11.046 8.954 20 20 20h118c11.046 0 20-8.954 20-20v-157.333c0-11.046-8.954-20-20-20-32.349 0-58.667-26.318-58.667-58.667s26.318-58.667 58.667-58.667zm-20 155.296v119.371h-80.037c-9.27-44.849-49.075-78.667-96.63-78.667s-87.359 33.818-96.629 78.667h-80.037v-137.333c0-11.046-8.954-20-20-20-32.349 0-58.667-26.318-58.667-58.667s26.318-58.667 58.667-58.667c11.046 0 20-8.954 20-20v-137.333h80.037c9.27 44.849 49.075 78.667 96.63 78.667s87.359-33.818 96.629-78.667h80.037v119.37c-44.849 9.27-78.667 49.075-78.667 96.63s33.818 87.359 78.667 96.629z" fill="url(#SVGID_1_)"/></svg>